<svg width="22" height="15" viewBox="0 0 22 15" fill="none" xmlns="http://www.w3.org/2000/svg">
<path d="M20.7501 0.333362H0.166748V2.50003H2.65841L6.21175 12.25C6.43525 12.8822 6.84882 13.4298 7.39576 13.8177C7.9427 14.2056 8.59622 14.4148 9.26675 14.4167H18.5834V12.25H9.26675C9.04411 12.2499 8.8269 12.1812 8.64469 12.0533C8.46248 11.9254 8.32411 11.7444 8.24841 11.535L7.75008 10.0834H17.8034C18.2736 10.0827 18.7308 9.92907 19.106 9.6457C19.4813 9.36233 19.7541 8.9646 19.8834 8.51253L21.8334 1.7092C21.8774 1.56694 21.8917 1.41712 21.8752 1.26912C21.8588 1.12111 21.812 0.978086 21.7378 0.848976C21.6635 0.719866 21.5635 0.607443 21.4439 0.518728C21.3243 0.430013 21.1877 0.366911 21.0426 0.333362C20.9457 0.31759 20.8469 0.31759 20.7501 0.333362ZM17.7709 7.9167H6.93758L4.96591 2.50003H19.3092L17.7709 7.9167Z" fill="#5E6775"/>
</svg>
