<svg width="90" height="90" viewBox="0 0 90 90" fill="none" xmlns="http://www.w3.org/2000/svg">
<rect width="90" height="90" rx="8" fill="#2CD182"/>
<g clip-path="url(#clip0_1_228)">
<path d="M64.2 53.6333H63.4V34.8333C63.4 34.0333 63.1111 33.3222 62.5333 32.7C61.9556 32.0778 61.2222 31.7667 60.3333 31.7667H51.4L50.8667 30.1667H51.6667C51.8444 30.1667 52.0222 30.1 52.2 29.9667C52.3778 29.8333 52.4667 29.6333 52.4667 29.3667V25.5C52.4667 25.2333 52.3778 25.0333 52.2 24.9C52.0222 24.7667 51.8444 24.7 51.6667 24.7H50.0667V22.3C50.0667 22.1222 50 21.9667 49.8667 21.8333C49.7333 21.7 49.5333 21.6333 49.2667 21.6333H40.7333C40.4667 21.6333 40.2667 21.7 40.1333 21.8333C40 21.9667 39.9333 22.1222 39.9333 22.3V24.7H38.3333C38.1556 24.7 37.9778 24.7667 37.8 24.9C37.6222 25.0333 37.5333 25.2333 37.5333 25.5V29.3667C37.5333 29.6333 37.6222 29.8333 37.8 29.9667C37.9778 30.1 38.1556 30.1667 38.3333 30.1667H39.1333L38.6 31.7667H29.6667C28.7778 31.7667 28.0444 32.0778 27.4667 32.7C26.8889 33.3222 26.6 34.0333 26.6 34.8333V53.6333H25.8C25.5333 53.6333 25.3333 53.7 25.2 53.8333C25.0667 53.9667 25 54.1667 25 54.4333V58.3C25 59.1889 25.3111 59.9222 25.9333 60.5C26.5556 61.0778 27.2667 61.3667 28.0667 61.3667H61.9333C62.7333 61.3667 63.4444 61.0778 64.0667 60.5C64.6889 59.9222 65 59.1889 65 58.3V54.4333C65 54.1667 64.9333 53.9667 64.8 53.8333C64.6667 53.7 64.4667 53.6333 64.2 53.6333ZM60.3333 33.2333C60.7778 33.2333 61.1556 33.3889 61.4667 33.7C61.7778 34.0111 61.9333 34.3889 61.9333 34.8333V53.6333H60.3333V35.6333C60.3333 35.4556 60.2444 35.2778 60.0667 35.1C59.8889 34.9222 59.7111 34.8333 59.5333 34.8333H52.4667L51.9333 33.2333H60.3333ZM41.5333 55.2333H48.4667V56.7H41.5333V55.2333ZM31.2667 53.6333V36.4333H36.8667L36.4667 37.7667C36.3778 38.0333 36.4222 38.2556 36.6 38.4333L43.5333 48.1667H38.2C38.0222 47.7222 37.7333 47.3444 37.3333 47.0333C36.9333 46.7222 36.4444 46.5667 35.8667 46.5667C35.2889 46.5667 34.7778 46.7889 34.3333 47.2333C33.8889 47.6778 33.6667 48.2333 33.6667 48.9C33.6667 49.5667 33.8889 50.1222 34.3333 50.5667C34.7778 51.0111 35.2889 51.2333 35.8667 51.2333C36.4444 51.2333 36.9333 51.1 37.3333 50.8333C37.7333 50.5667 38.0222 50.2111 38.2 49.7667H51.8C51.9778 50.2111 52.2667 50.5667 52.6667 50.8333C53.0667 51.1 53.5556 51.2333 54.1333 51.2333C54.7111 51.2333 55.2222 51.0111 55.6667 50.5667C56.1111 50.1222 56.3333 49.5667 56.3333 48.9C56.3333 48.2333 56.1111 47.6778 55.6667 47.2333C55.2222 46.7889 54.7111 46.5667 54.1333 46.5667C53.5556 46.5667 53.0667 46.7222 52.6667 47.0333C52.2667 47.3444 51.9778 47.7222 51.8 48.1667H46.4667L53.4 38.4333C53.5778 38.2556 53.6222 38.0333 53.5333 37.7667L53.1333 36.4333H58.7333V53.6333H31.2667ZM45 38.0333C44.8222 38.0333 44.6444 37.9444 44.4667 37.7667C44.2889 37.5889 44.2 37.3889 44.2 37.1667C44.2 36.9444 44.2889 36.7667 44.4667 36.6333C44.6444 36.5 44.8222 36.4333 45 36.4333C45.1778 36.4333 45.3556 36.5 45.5333 36.6333C45.7111 36.7667 45.8 36.9444 45.8 37.1667C45.8 37.3889 45.7111 37.5889 45.5333 37.7667C45.3556 37.9444 45.1778 38.0333 45 38.0333ZM36.7333 48.9667C36.7333 49.1444 36.6667 49.3222 36.5333 49.5C36.4 49.6778 36.2222 49.7667 36 49.7667C35.7778 49.7667 35.6 49.6778 35.4667 49.5C35.3333 49.3222 35.2667 49.1222 35.2667 48.9C35.2667 48.6778 35.3333 48.5 35.4667 48.3667C35.6 48.2333 35.7778 48.1667 36 48.1667C36.2222 48.1667 36.4 48.2333 36.5333 48.3667C36.6667 48.5 36.7333 48.7 36.7333 48.9667ZM53.2667 48.9667C53.2667 48.7 53.3333 48.5 53.4667 48.3667C53.6 48.2333 53.7778 48.1667 54 48.1667C54.2222 48.1667 54.4 48.2333 54.5333 48.3667C54.6667 48.5 54.7333 48.6778 54.7333 48.9C54.7333 49.1222 54.6667 49.3222 54.5333 49.5C54.4 49.6778 54.2222 49.7667 54 49.7667C53.7778 49.7667 53.6 49.6778 53.4667 49.5C53.3333 49.3222 53.2667 49.1444 53.2667 48.9667ZM41.5333 23.1H48.4667V24.7H41.5333V23.1ZM39.1333 26.3H50.8667V28.5667H39.1333V26.3ZM49.1333 30.1667L51.9333 37.9L45.8 46.4333V39.3667C46.2444 39.2778 46.6222 39.0111 46.9333 38.5667C47.2444 38.1222 47.4 37.6333 47.4 37.1C47.4 36.5667 47.1556 36.0556 46.6667 35.5667C46.1778 35.0778 45.6222 34.8333 45 34.8333C44.3778 34.8333 43.8222 35.0778 43.3333 35.5667C42.8444 36.0556 42.6 36.5667 42.6 37.1C42.6 37.6333 42.7556 38.1222 43.0667 38.5667C43.3778 39.0111 43.7556 39.2778 44.2 39.3667V46.4333L38.0667 37.9L40.8667 30.1667H49.1333ZM28.0667 34.8333C28.0667 34.3889 28.2222 34.0111 28.5333 33.7C28.8444 33.3889 29.2222 33.2333 29.6667 33.2333H38.0667L37.5333 34.8333H30.4667C30.2889 34.8333 30.1111 34.9222 29.9333 35.1C29.7556 35.2778 29.6667 35.4556 29.6667 35.6333V53.6333H28.0667V34.8333ZM63.4 58.3C63.4 58.7444 63.2444 59.1222 62.9333 59.4333C62.6222 59.7444 62.2889 59.9 61.9333 59.9H28.0667C27.7111 59.9 27.3778 59.7444 27.0667 59.4333C26.7556 59.1222 26.6 58.7444 26.6 58.3V55.2333H39.9333V57.5C39.9333 57.7667 40 57.9667 40.1333 58.1C40.2667 58.2333 40.4667 58.3 40.7333 58.3H49.2667C49.5333 58.3 49.7333 58.2333 49.8667 58.1C50 57.9667 50.0667 57.7667 50.0667 57.5V55.2333H63.4V58.3Z" fill="white"/>
</g>
<defs>
<clipPath id="clip0_1_228">
<rect width="40.02" height="40" fill="white" transform="matrix(1 0 0 -1 24.99 61.5)"/>
</clipPath>
</defs>
</svg>
