<svg width="90" height="90" viewBox="0 0 90 90" fill="none" xmlns="http://www.w3.org/2000/svg">
<rect width="90" height="90" rx="8" fill="#7F56D9"/>
<g clip-path="url(#clip0_1_219)">
<path d="M42.8567 50.0333C42.6789 50.0333 42.5011 50.1222 42.3233 50.3C42.1455 50.4778 42.0567 50.6778 42.0567 50.9C42.0567 51.1222 42.1455 51.3 42.3233 51.4333C42.5011 51.5667 42.6789 51.6333 42.8567 51.6333C43.0344 51.6333 43.2122 51.5667 43.39 51.4333C43.5678 51.3 43.6567 51.1222 43.6567 50.9C43.6567 50.6778 43.5678 50.4778 43.39 50.3C43.2122 50.1222 43.0344 50.0333 42.8567 50.0333ZM56.8567 27.3667H40.99L36.0567 22.4333C35.4344 21.8111 34.7011 21.5 33.8567 21.5C33.0122 21.5 32.3011 21.7889 31.7233 22.3667C31.1455 22.9444 30.8567 23.6556 30.8567 24.5C30.8567 25.3444 31.1233 26.0778 31.6567 26.7L32.4567 27.3667H28.8567C27.79 27.3667 26.8789 27.7667 26.1233 28.5667C25.3678 29.3667 24.99 30.3 24.99 31.3667V36.4333C24.99 36.7 25.0567 36.9 25.19 37.0333C25.3233 37.1667 25.5011 37.2333 25.7233 37.2333C25.9455 37.2333 26.1455 37.1667 26.3233 37.0333C26.5011 36.9 26.59 36.7 26.59 36.4333V31.3667C26.59 30.6556 26.8122 30.0778 27.2567 29.6333C27.7011 29.1889 28.2344 28.9667 28.8567 28.9667H34.0567L43.9233 38.8333L43.79 39.6333C43.79 41.0556 44.2789 42.2556 45.2567 43.2333C46.1455 44.1222 47.1011 44.7444 48.1233 45.1C49.1455 45.4556 50.4122 45.6333 51.9233 45.6333C52.6344 45.6333 53.39 45.5889 54.19 45.5C54.5455 45.5 54.7678 45.3444 54.8567 45.0333C54.9455 44.7222 54.9011 44.4333 54.7233 44.1667C54.2789 43.7222 54.0122 43.2333 53.9233 42.7C53.8344 42.3444 53.8344 41.7222 53.9233 40.8333C54.0122 39.8556 54.0122 39.0556 53.9233 38.4333C53.7455 37.5444 53.3233 36.7667 52.6567 36.1C51.99 35.4333 51.2789 34.9667 50.5233 34.7C49.7678 34.4333 48.9455 34.3889 48.0567 34.5667L42.59 28.9667H56.8567C57.4789 28.9667 58.0344 29.1889 58.5233 29.6333C59.0122 30.0778 59.2567 30.6556 59.2567 31.3667V47.3667H26.59V43.5C26.59 43.3222 26.5011 43.1444 26.3233 42.9667C26.1455 42.7889 25.9455 42.7 25.7233 42.7C25.5011 42.7 25.3233 42.7889 25.19 42.9667C25.0567 43.1444 24.99 43.3222 24.99 43.5V50.4333C24.99 51.5 25.3678 52.4111 26.1233 53.1667C26.8789 53.9222 27.79 54.3 28.8567 54.3H38.99V56.8333C37.9233 56.8333 37.0122 57.2111 36.2567 57.9667C35.5011 58.7222 35.1233 59.6333 35.1233 60.7C35.1233 60.9667 35.19 61.1667 35.3233 61.3C35.4567 61.4333 35.6567 61.5 35.9233 61.5H49.79C50.0567 61.5 50.2567 61.4333 50.39 61.3C50.5233 61.1667 50.59 60.9667 50.59 60.7C50.59 59.6333 50.2122 58.7222 49.4567 57.9667C48.7011 57.2111 47.79 56.8333 46.7233 56.8333V54.3H56.8567C57.9233 54.3 58.8344 53.9222 59.59 53.1667C60.3455 52.4111 60.7233 51.5 60.7233 50.4333V31.3667C60.7233 30.3 60.3455 29.3667 59.59 28.5667C58.8344 27.7667 57.9233 27.3667 56.8567 27.3667ZM32.8567 23.5C33.1233 23.2333 33.4567 23.1 33.8567 23.1C34.2567 23.1 34.59 23.2333 34.8567 23.5L42.7233 31.3667L40.7233 33.5L32.8567 25.6333C32.5011 25.2778 32.3233 24.9 32.3233 24.5C32.3233 24.1 32.5011 23.7667 32.8567 23.5ZM46.4567 42.1667C46.7233 41.7222 47.0789 41.3444 47.5233 41.0333C47.9678 40.7222 48.5011 40.5222 49.1233 40.4333C50.4567 40.3444 51.5678 39.8111 52.4567 38.8333C52.4567 39.1889 52.4122 39.8111 52.3233 40.7C52.3233 41.4111 52.3233 41.9889 52.3233 42.4333C52.3233 43.0556 52.4567 43.6333 52.7233 44.1667C51.3011 44.1667 50.0789 44.0111 49.0567 43.7C48.0344 43.3889 47.1678 42.8778 46.4567 42.1667ZM51.5233 37.1C51.5233 37.1 51.5678 37.1444 51.6567 37.2333C51.39 37.6778 51.0122 38.0556 50.5233 38.3667C50.0344 38.6778 49.5233 38.8778 48.99 38.9667C47.5678 38.9667 46.4122 39.5444 45.5233 40.7C45.4344 40.3444 45.39 39.9889 45.39 39.6333C45.39 38.6556 45.7455 37.8111 46.4567 37.1C47.1678 36.3889 48.0122 36.0333 48.99 36.0333C49.9678 36.0333 50.8122 36.3889 51.5233 37.1ZM45.2567 35.9L44.19 36.9667L41.79 34.5667L43.9233 32.4333L46.3233 34.9667L45.2567 35.9ZM48.8567 59.9H36.8567C37.0344 59.4556 37.3233 59.1 37.7233 58.8333C38.1233 58.5667 38.5455 58.4333 38.99 58.4333H46.7233C47.1678 58.4333 47.6122 58.5667 48.0567 58.8333C48.5011 59.1 48.7678 59.4556 48.8567 59.9ZM45.2567 56.8333H40.4567V54.3H45.2567V56.8333ZM56.8567 52.7H28.8567C28.2344 52.7 27.7011 52.4778 27.2567 52.0333C26.8122 51.5889 26.59 51.0556 26.59 50.4333V48.9667H59.2567V50.4333C59.2567 51.0556 59.0122 51.5889 58.5233 52.0333C58.0344 52.4778 57.4789 52.7 56.8567 52.7ZM25.79 40.8333C25.9678 40.8333 26.1455 40.7444 26.3233 40.5667C26.5011 40.3889 26.59 40.1889 26.59 39.9667C26.59 39.7444 26.5011 39.5667 26.3233 39.4333C26.1455 39.3 25.9455 39.2333 25.7233 39.2333C25.5011 39.2333 25.3233 39.3 25.19 39.4333C25.0567 39.5667 24.99 39.7444 24.99 39.9667C24.99 40.1889 25.0567 40.3889 25.19 40.5667C25.3233 40.7444 25.5233 40.8333 25.79 40.8333Z" fill="white"/>
</g>
<defs>
<clipPath id="clip0_1_219">
<rect width="40.02" height="40" fill="white" transform="matrix(1 0 0 -1 24.98 61.5)"/>
</clipPath>
</defs>
</svg>
