<svg width="90" height="90" viewBox="0 0 90 90" fill="none" xmlns="http://www.w3.org/2000/svg">
<rect width="90" height="90" rx="8" fill="#2AAA94"/>
<g clip-path="url(#clip0_1_225)">
<path d="M44.99 41.5C44.9011 41.5 44.8122 41.5 44.7233 41.5L28.8567 35.6333C28.5011 35.4556 28.3233 35.1889 28.3233 34.8333C28.3233 34.4778 28.5011 34.2111 28.8567 34.0333L39.6567 30.0333C39.9233 29.9444 40.1455 29.9667 40.3233 30.1C40.5011 30.2333 40.6344 30.3889 40.7233 30.5667C40.8122 30.7444 40.8122 30.9444 40.7233 31.1667C40.6344 31.3889 40.5011 31.5444 40.3233 31.6333L31.5233 34.8333L44.99 39.7667L58.4567 34.8333L49.6567 31.6333C49.4789 31.5444 49.3455 31.3889 49.2567 31.1667C49.1678 30.9444 49.1678 30.7444 49.2567 30.5667C49.3455 30.3889 49.4789 30.2333 49.6567 30.1C49.8344 29.9667 50.0567 29.9444 50.3233 30.0333L61.1233 34.0333C61.4789 34.2111 61.6567 34.4778 61.6567 34.8333C61.6567 35.1889 61.4789 35.4556 61.1233 35.6333L45.2567 41.5H44.99ZM44.99 61.5C44.9011 61.5 44.8122 61.5 44.7233 61.5L35.79 58.1667C35.6122 58.0778 35.4789 57.9444 35.39 57.7667C35.3011 57.5889 35.3011 57.3889 35.39 57.1667C35.4789 56.9444 35.6122 56.7889 35.79 56.7C35.9678 56.6111 36.19 56.5667 36.4567 56.5667L44.99 59.7667L53.5233 56.5667C53.79 56.5667 54.0122 56.6111 54.19 56.7C54.3678 56.7889 54.5011 56.9444 54.59 57.1667C54.6789 57.3889 54.6789 57.5889 54.59 57.7667C54.5011 57.9444 54.3678 58.0778 54.19 58.1667L45.2567 61.5H44.99ZM29.1233 51.1C28.9455 51.1 28.7678 51.0111 28.59 50.8333C28.4122 50.6556 28.3233 50.4778 28.3233 50.3V34.8333C28.3233 34.5667 28.4122 34.3667 28.59 34.2333C28.7678 34.1 28.9678 34.0333 29.19 34.0333C29.4122 34.0333 29.6122 34.1 29.79 34.2333C29.9678 34.3667 30.0567 34.5667 30.0567 34.8333V50.3C30.0567 50.4778 29.9678 50.6556 29.79 50.8333C29.6122 51.0111 29.39 51.1 29.1233 51.1ZM60.8567 51.1C60.59 51.1 60.3678 51.0111 60.19 50.8333C60.0122 50.6556 59.9233 50.4778 59.9233 50.3V34.8333C59.9233 34.5667 60.0122 34.3667 60.19 34.2333C60.3678 34.1 60.5678 34.0333 60.79 34.0333C61.0122 34.0333 61.2122 34.1 61.39 34.2333C61.5678 34.3667 61.6567 34.5667 61.6567 34.8333V50.3C61.6567 50.4778 61.5678 50.6556 61.39 50.8333C61.2122 51.0111 61.0344 51.1 60.8567 51.1ZM44.99 34.8333C44.7233 34.8333 44.5233 34.7444 44.39 34.5667C44.2567 34.3889 44.19 34.2111 44.19 34.0333V27.3667C44.19 27.1 44.2567 26.8778 44.39 26.7C44.5233 26.5222 44.7233 26.4556 44.99 26.5C45.2567 26.5444 45.4567 26.6333 45.59 26.7667C45.7233 26.9 45.79 27.1 45.79 27.3667V34.0333C45.79 34.2111 45.7233 34.3889 45.59 34.5667C45.4567 34.7444 45.2567 34.8333 44.99 34.8333ZM59.9233 57.2333C59.6567 57.2333 59.4344 57.1444 59.2567 56.9667L55.2567 52.9667C55.0789 52.7889 54.99 52.5889 54.99 52.3667C54.99 52.1444 55.0789 51.9444 55.2567 51.7667C55.4344 51.5889 55.6344 51.5 55.8567 51.5C56.0789 51.5 56.2789 51.5889 56.4567 51.7667L60.4567 55.7667C60.6344 55.9444 60.7233 56.1444 60.7233 56.3667C60.7233 56.5889 60.6344 56.7889 60.4567 56.9667C60.2789 57.1444 60.1011 57.2333 59.9233 57.2333ZM30.0567 57.2333C29.8789 57.2333 29.7011 57.1444 29.5233 56.9667C29.3455 56.7889 29.2567 56.5889 29.2567 56.3667C29.2567 56.1444 29.3455 55.9444 29.5233 55.7667L33.5233 51.7667C33.7011 51.5889 33.9011 51.5 34.1233 51.5C34.3455 51.5 34.5455 51.5889 34.7233 51.7667C34.9011 51.9444 34.99 52.1444 34.99 52.3667C34.99 52.5889 34.9011 52.7889 34.7233 52.9667L30.7233 56.9667C30.5455 57.1444 30.3233 57.2333 30.0567 57.2333ZM44.99 61.5C44.7233 61.5 44.5233 61.4111 44.39 61.2333C44.2567 61.0556 44.19 60.8778 44.19 60.7V40.7C44.19 40.4333 44.2567 40.2111 44.39 40.0333C44.5233 39.8556 44.7233 39.7667 44.99 39.7667C45.2567 39.7667 45.4567 39.8556 45.59 40.0333C45.7233 40.2111 45.79 40.4333 45.79 40.7V60.7C45.79 60.8778 45.7233 61.0556 45.59 61.2333C45.4567 61.4111 45.2567 61.5 44.99 61.5ZM44.99 28.1667C44.1011 28.1667 43.3233 27.8333 42.6567 27.1667C41.99 26.5 41.6567 25.7222 41.6567 24.8333C41.6567 23.9444 41.99 23.1667 42.6567 22.5C43.3233 21.8333 44.1011 21.5 44.99 21.5C45.8789 21.5 46.6567 21.8333 47.3233 22.5C47.99 23.1667 48.3233 23.9444 48.3233 24.8333C48.3233 25.7222 47.99 26.5 47.3233 27.1667C46.6567 27.8333 45.8789 28.1667 44.99 28.1667ZM44.99 23.1C44.5455 23.1 44.1678 23.2778 43.8567 23.6333C43.5455 23.9889 43.39 24.3889 43.39 24.8333C43.39 25.2778 43.5455 25.6556 43.8567 25.9667C44.1678 26.2778 44.5455 26.4333 44.99 26.4333C45.4344 26.4333 45.8344 26.2778 46.19 25.9667C46.5455 25.6556 46.7233 25.2778 46.7233 24.8333C46.7233 24.3889 46.5455 23.9889 46.19 23.6333C45.8344 23.2778 45.4344 23.1 44.99 23.1ZM61.6567 61.5C60.7678 61.5 59.99 61.1667 59.3233 60.5C58.6567 59.8333 58.3233 59.0556 58.3233 58.1667C58.3233 57.2778 58.6567 56.5 59.3233 55.8333C59.99 55.1667 60.7678 54.8333 61.6567 54.8333C62.5455 54.8333 63.3233 55.1667 63.99 55.8333C64.6567 56.5 64.99 57.2778 64.99 58.1667C64.99 59.0556 64.6567 59.8333 63.99 60.5C63.3233 61.1667 62.5455 61.5 61.6567 61.5ZM61.6567 56.4333C61.2122 56.4333 60.8122 56.6111 60.4567 56.9667C60.1011 57.3222 59.9455 57.7222 59.99 58.1667C60.0344 58.6111 60.2122 59.0111 60.5233 59.3667C60.8344 59.7222 61.2122 59.8778 61.6567 59.8333C62.1011 59.7889 62.5011 59.6111 62.8567 59.3C63.2122 58.9889 63.39 58.6111 63.39 58.1667C63.39 57.7222 63.2122 57.3222 62.8567 56.9667C62.5011 56.6111 62.1011 56.4333 61.6567 56.4333ZM28.3233 61.5C27.4344 61.5 26.6567 61.1667 25.99 60.5C25.3233 59.8333 24.99 59.0556 24.99 58.1667C24.99 57.2778 25.3233 56.5 25.99 55.8333C26.6567 55.1667 27.4344 54.8333 28.3233 54.8333C29.2122 54.8333 29.99 55.1667 30.6567 55.8333C31.3233 56.5 31.6567 57.2778 31.6567 58.1667C31.6567 59.0556 31.3233 59.8333 30.6567 60.5C29.99 61.1667 29.2122 61.5 28.3233 61.5ZM28.3233 56.4333C27.8789 56.5222 27.4789 56.7222 27.1233 57.0333C26.7678 57.3444 26.6122 57.7222 26.6567 58.1667C26.7011 58.6111 26.8789 59.0111 27.19 59.3667C27.5011 59.7222 27.8789 59.8778 28.3233 59.8333C28.7678 59.7889 29.1678 59.6111 29.5233 59.3C29.8789 58.9889 30.0344 58.6111 29.99 58.1667C29.9455 57.7222 29.7678 57.3222 29.4567 56.9667C29.1455 56.6111 28.7678 56.4333 28.3233 56.4333Z" fill="white"/>
</g>
<defs>
<clipPath id="clip0_1_225">
<rect width="40.02" height="40" fill="white" transform="matrix(1 0 0 -1 24.98 61.5)"/>
</clipPath>
</defs>
</svg>
