<svg width="90" height="90" viewBox="0 0 90 90" fill="none" xmlns="http://www.w3.org/2000/svg">
<rect width="90" height="90" rx="8" fill="#5AB48E"/>
<g clip-path="url(#clip0_1_216)">
<path d="M40.7233 49.5C40.6344 49.5 40.5011 49.4556 40.3233 49.3667L36.0567 45.7667C35.8789 45.5889 35.79 45.4111 35.79 45.2333C35.79 45.0556 35.8789 44.8778 36.0567 44.7L40.3233 41.1C40.5011 41.0111 40.6789 40.9667 40.8567 40.9667C41.0344 40.9667 41.1678 41.0333 41.2567 41.1667C41.3455 41.3 41.39 41.4556 41.39 41.6333C41.39 41.8111 41.3455 41.9445 41.2567 42.0333L37.5233 45.2333L41.2567 48.4333C41.3455 48.5222 41.39 48.6556 41.39 48.8333C41.39 49.0111 41.3455 49.1667 41.2567 49.3C41.1678 49.4333 40.99 49.5 40.7233 49.5ZM49.2567 49.5C48.99 49.5 48.8122 49.4333 48.7233 49.3C48.6344 49.1667 48.59 49.0111 48.59 48.8333C48.59 48.6556 48.6344 48.5222 48.7233 48.4333L52.4567 45.2333L48.7233 42.0333C48.6344 41.9445 48.59 41.8111 48.59 41.6333C48.59 41.4556 48.6344 41.3 48.7233 41.1667C48.8122 41.0333 48.9455 40.9667 49.1233 40.9667C49.3011 40.9667 49.4789 41.0111 49.6567 41.1L53.9233 44.7C54.1011 44.8778 54.19 45.0556 54.19 45.2333C54.19 45.4111 54.1011 45.5889 53.9233 45.7667L49.6567 49.3667C49.4789 49.4556 49.3455 49.5 49.2567 49.5ZM43.5233 52.3C43.4344 52.3 43.3455 52.2778 43.2567 52.2333C43.1678 52.1889 43.0567 52.1 42.9233 51.9667C42.79 51.8333 42.7678 51.6778 42.8567 51.5L45.5233 38.8333C45.5233 38.6556 45.6122 38.5222 45.79 38.4333C45.9678 38.3444 46.1455 38.3 46.3233 38.3C46.5011 38.3 46.6344 38.3889 46.7233 38.5667C46.8122 38.7444 46.8122 38.9222 46.7233 39.1L44.0567 51.7667C44.0567 52.1222 43.8789 52.3 43.5233 52.3ZM60.59 59.1H29.39C28.2344 59.1 27.2122 58.6778 26.3233 57.8333C25.4344 56.9889 24.99 55.9445 24.99 54.7V28.3C24.99 27.0556 25.4344 26.0111 26.3233 25.1667C27.2122 24.3222 28.2344 23.9 29.39 23.9H60.59C61.7455 23.9 62.7678 24.3222 63.6567 25.1667C64.5455 26.0111 64.99 27.0556 64.99 28.3V54.7C64.99 55.9445 64.5455 56.9889 63.6567 57.8333C62.7678 58.6778 61.7455 59.1 60.59 59.1ZM29.39 25.2333C28.59 25.2333 27.8789 25.5222 27.2567 26.1C26.6344 26.6778 26.3233 27.4111 26.3233 28.3V54.7C26.3233 55.5889 26.6344 56.3222 27.2567 56.9C27.8789 57.4778 28.59 57.7667 29.39 57.7667H60.59C61.39 57.7667 62.1011 57.4778 62.7233 56.9C63.3455 56.3222 63.6567 55.5889 63.6567 54.7V28.3C63.6567 27.4111 63.3455 26.6778 62.7233 26.1C62.1011 25.5222 61.39 25.2333 60.59 25.2333H29.39ZM64.3233 34.4333H25.6567C25.4789 34.4333 25.3233 34.3667 25.19 34.2333C25.0567 34.1 24.99 33.9444 24.99 33.7667C24.99 33.5889 25.0567 33.4333 25.19 33.3C25.3233 33.1667 25.4789 33.1 25.6567 33.1H64.3233C64.5011 33.1 64.6567 33.1667 64.79 33.3C64.9233 33.4333 64.99 33.5889 64.99 33.7667C64.99 33.9444 64.9233 34.1 64.79 34.2333C64.6567 34.3667 64.5011 34.4333 64.3233 34.4333ZM36.3233 31.2333C35.7011 31.2333 35.19 31.0333 34.79 30.6333C34.39 30.2333 34.19 29.7444 34.19 29.1667C34.19 28.5889 34.39 28.1 34.79 27.7C35.19 27.3 35.6789 27.1 36.2567 27.1C36.8344 27.1 37.3233 27.3 37.7233 27.7C38.1233 28.1 38.3233 28.5889 38.3233 29.1667C38.3233 29.7444 38.1233 30.2333 37.7233 30.6333C37.3233 31.0333 36.8567 31.2333 36.3233 31.2333ZM36.3233 28.4333C36.0567 28.4333 35.8567 28.5 35.7233 28.6333C35.59 28.7667 35.5233 28.9444 35.5233 29.1667C35.5233 29.3889 35.59 29.5667 35.7233 29.7C35.8567 29.8333 36.0344 29.9 36.2567 29.9C36.4789 29.9 36.6567 29.8333 36.79 29.7C36.9233 29.5667 36.99 29.3889 36.99 29.1667C36.99 28.9444 36.9233 28.7667 36.79 28.6333C36.6567 28.5 36.5011 28.4333 36.3233 28.4333ZM29.79 31.2333C29.2567 31.2333 28.79 31.0333 28.39 30.6333C27.99 30.2333 27.79 29.7444 27.79 29.1667C27.79 28.5889 27.99 28.1 28.39 27.7C28.79 27.3 29.2789 27.1 29.8567 27.1C30.4344 27.1 30.9233 27.3 31.3233 27.7C31.7233 28.1 31.9233 28.5889 31.9233 29.1667C31.9233 29.7444 31.7233 30.2333 31.3233 30.6333C30.9233 31.0333 30.4122 31.2333 29.79 31.2333ZM29.79 28.4333C29.6122 28.4333 29.4567 28.5 29.3233 28.6333C29.19 28.7667 29.1233 28.9444 29.1233 29.1667C29.1233 29.3889 29.19 29.5667 29.3233 29.7C29.4567 29.8333 29.6344 29.9 29.8567 29.9C30.0789 29.9 30.2567 29.8333 30.39 29.7C30.5233 29.5667 30.59 29.3889 30.59 29.1667C30.59 28.9444 30.5233 28.7667 30.39 28.6333C30.2567 28.5 30.0567 28.4333 29.79 28.4333ZM42.7233 31.2333C42.1011 31.2333 41.59 31.0333 41.19 30.6333C40.79 30.2333 40.59 29.7444 40.59 29.1667C40.59 28.5889 40.79 28.1 41.19 27.7C41.59 27.3 42.0789 27.1 42.6567 27.1C43.2344 27.1 43.7233 27.3 44.1233 27.7C44.5233 28.1 44.7233 28.5889 44.7233 29.1667C44.7233 29.7444 44.5233 30.2333 44.1233 30.6333C43.7233 31.0333 43.2567 31.2333 42.7233 31.2333ZM42.7233 28.4333C42.4567 28.4333 42.2567 28.5 42.1233 28.6333C41.99 28.7667 41.9233 28.9444 41.9233 29.1667C41.9233 29.3889 41.99 29.5889 42.1233 29.7667C42.2567 29.9444 42.4344 30.0333 42.6567 30.0333C42.8789 30.0333 43.0789 29.9444 43.2567 29.7667C43.4344 29.5889 43.5233 29.3889 43.5233 29.1667C43.5233 28.9444 43.4344 28.7667 43.2567 28.6333C43.0789 28.5 42.9011 28.4333 42.7233 28.4333Z" fill="white"/>
</g>
<defs>
<clipPath id="clip0_1_216">
<rect width="40.02" height="40" fill="white" transform="matrix(1 0 0 -1 24.98 61.5)"/>
</clipPath>
</defs>
</svg>
