<svg width="80" height="76" viewBox="0 0 80 76" fill="none" xmlns="http://www.w3.org/2000/svg">
<path d="M23.4667 12.4C23.2889 12.0445 22.9778 11.8223 22.5333 11.7334C22.0889 11.6445 21.6889 11.6889 21.3333 11.8667C20.9778 12.2223 20.7111 12.5778 20.5333 12.9334C20.3556 13.2889 20.4 13.6889 20.6667 14.1334C20.9333 14.5778 21.2889 14.8 21.7333 14.8C22.1778 14.8 22.5778 14.7111 22.9333 14.5334C23.2889 14.3556 23.5111 14.0445 23.6 13.6C23.6889 13.1556 23.6444 12.7556 23.4667 12.4ZM79.2 24.6667L40.8 0.933372C40.2667 0.577812 39.7333 0.577812 39.2 0.933372L26.4 8.93337C25.8667 9.11115 25.5556 9.42226 25.4667 9.86671C25.3778 10.3111 25.4667 10.7112 25.7333 11.0667C26 11.4223 26.3556 11.6445 26.8 11.7334C27.2444 11.8223 27.6444 11.7778 28 11.6L40 4.13337L75.4667 26L40 47.8667L20.8 36.1334L37.0667 26.5334C37.9556 27.2445 38.9778 27.6 40.1333 27.6C41.2889 27.6 42.3556 27.1111 43.3333 26.1334C44.3111 25.1556 44.8 24.0445 44.8 22.8C44.8 21.5556 44.3111 20.4889 43.3333 19.6C42.3556 18.7111 41.2444 18.2667 40 18.2667C38.7556 18.2667 37.6444 18.7111 36.6667 19.6C35.6889 20.4889 35.2 21.5556 35.2 22.8L35.4667 23.8667L17.8667 34.2667L4.53333 26L16.8 18.2667C17.1556 18.0889 17.3778 17.7778 17.4667 17.3334C17.5556 16.8889 17.5111 16.4889 17.3333 16.1334C17.1556 15.7778 16.8444 15.5556 16.4 15.4667C15.9556 15.3778 15.5556 15.4223 15.2 15.6L0.8 24.6667C0.266667 25.0223 0 25.4667 0 26C0 26.5334 0.266667 26.9778 0.8 27.3334L14.9333 35.8667L13.0667 36.9334C11.6444 37.8223 10.5333 38.9778 9.73333 40.4C8.93333 41.8223 8.53333 43.3334 8.53333 44.9334V47.6C7.64444 47.9556 6.88889 48.4889 6.26667 49.2C5.64444 49.9111 5.33333 50.8 5.33333 51.8667V54.5334C4.08889 55.7778 3.46667 57.3778 3.46667 59.3334V73.7334C3.46667 74.2667 3.6 74.6667 3.86667 74.9334C4.13333 75.2 4.53333 75.3334 5.06667 75.3334H14.9333C15.4667 75.3334 15.8667 75.2 16.1333 74.9334C16.4 74.6667 16.5333 74.2667 16.5333 73.7334V59.3334C16.5333 57.3778 15.9111 55.7778 14.6667 54.5334V51.8667C14.6667 50.8 14.3556 49.9111 13.7333 49.2C13.1111 48.4889 12.3556 47.9556 11.4667 47.6V44.9334C11.4667 43.8667 11.7333 42.8889 12.2667 42C12.8 41.1111 13.6 40.4 14.6667 39.8667L16.5333 38.5334V53.7334C16.5333 54.0889 16.7111 54.4445 17.0667 54.8C17.4222 55.1556 17.7778 55.3334 18.1333 55.3334C22.0444 55.3334 25.7778 56.0889 29.3333 57.6C32.8889 59.1112 36.0889 61.2889 38.9333 64.1334C39.2889 64.3112 39.6444 64.4 40 64.4C40.3556 64.4 40.7111 64.3112 41.0667 64.1334C43.9111 61.2889 47.1111 59.1112 50.6667 57.6C54.2222 56.0889 57.9556 55.3334 61.8667 55.3334C62.2222 55.3334 62.5778 55.1556 62.9333 54.8C63.2889 54.4445 63.4667 54.0889 63.4667 53.7334V51.0667C63.4667 50.5334 63.2889 50.1334 62.9333 49.8667C62.5778 49.6 62.2222 49.4667 61.8667 49.4667C61.5111 49.4667 61.1556 49.6 60.8 49.8667C60.4444 50.1334 60.2667 50.5334 60.2667 51.0667V52.1334C53.3333 52.4889 47.1111 54.8889 41.6 59.3334V56.1334C41.6 55.7778 41.4222 55.4223 41.0667 55.0667C40.7111 54.7112 40.3556 54.5334 40 54.5334C39.6444 54.5334 39.2889 54.7112 38.9333 55.0667C38.5778 55.4223 38.4 55.7778 38.4 56.1334V59.3334C32.8889 54.8889 26.6667 52.4889 19.7333 52.1334V39.0667L39.2 51.0667C39.3778 51.2445 39.6444 51.3334 40 51.3334C40.3556 51.3334 40.6222 51.2445 40.8 51.0667L60.2667 39.0667V40.6667C60.2667 41.2 60.4444 41.6 60.8 41.8667C61.1556 42.1334 61.5111 42.2667 61.8667 42.2667C62.2222 42.2667 62.5778 42.1334 62.9333 41.8667C63.2889 41.6 63.4667 41.2 63.4667 40.6667V37.2L79.2 27.3334C79.7333 26.9778 80 26.5334 80 26C80 25.4667 79.7333 25.0223 79.2 24.6667ZM40 21.2C40.3556 21.2 40.7111 21.3778 41.0667 21.7334C41.4222 22.0889 41.6 22.4889 41.6 22.9334C41.6 23.3778 41.4222 23.7334 41.0667 24C40.7111 24.2667 40.3556 24.4 40 24.4C39.6444 24.4 39.2889 24.2667 38.9333 24C38.5778 23.7334 38.4 23.3778 38.4 22.9334C38.4 22.4889 38.5778 22.0889 38.9333 21.7334C39.2889 21.3778 39.6444 21.2 40 21.2ZM8.53333 51.8667C8.53333 51.5112 8.66667 51.1556 8.93333 50.8C9.2 50.4445 9.55556 50.2667 10 50.2667C10.4444 50.2667 10.8 50.4445 11.0667 50.8C11.3333 51.1556 11.4667 51.5112 11.4667 51.8667V52.6667H8.53333V51.8667ZM13.3333 59.3334V72.1334H6.66667V59.3334C6.66667 58.2667 6.97778 57.4223 7.6 56.8C8.22222 56.1778 9.02222 55.8667 10 55.8667C10.9778 55.8667 11.7778 56.1778 12.4 56.8C13.0222 57.4223 13.3333 58.2667 13.3333 59.3334ZM62.9333 44.4C62.5778 44.0445 62.2222 43.8667 61.8667 43.8667C61.5111 43.8667 61.1556 44.0445 60.8 44.4C60.4444 44.7556 60.2667 45.1556 60.2667 45.6C60.2667 46.0445 60.4444 46.4 60.8 46.6667C61.1556 46.9334 61.5111 47.0667 61.8667 47.0667C62.2222 47.0667 62.5778 46.9334 62.9333 46.6667C63.2889 46.4 63.4667 46.0445 63.4667 45.6C63.4667 45.1556 63.2889 44.7556 62.9333 44.4Z" fill="white"/>
</svg>
