<svg width="187" height="271" viewBox="0 0 187 271" fill="none" xmlns="http://www.w3.org/2000/svg">
<path opacity="0.2" d="M48.5221 269.5L48.5221 271L42.5662 271L42.5662 269.5L36.6103 269.5L36.6103 271L30.6544 271L30.6544 269.5L24.6985 269.5L24.6985 271L18.7426 271L18.7426 269.5L12.7867 269.5L12.7867 271L6.83086 271L6.83086 269.5L0.874972 269.5L0.874971 271L-5.08092 271L-5.08092 269.5L-11.0368 269.5L-11.0368 271L-16.9927 271L-16.9927 269.5L-22.9486 269.5L-22.9486 271L-28.9045 271L-28.9045 269.5L-34.8603 269.5L-34.8603 271L-40.8162 271L-40.8162 269.5L-46.7721 269.5L-46.7721 271L-52.728 271L-52.728 269.5L-58.6839 269.5L-58.6839 271L-64.6397 271L-64.6397 269.5L-70.5956 269.5L-70.5956 271L-76.5515 271L-76.5515 269.5L-82.5074 269.5L-82.5074 271L-88.4633 271L-88.4633 269.5L-94.4191 269.5L-94.4191 271L-100.375 271L-100.375 269.5L-106.331 269.5L-106.331 271L-112.287 271L-112.287 269.5L-118.243 269.5L-118.243 271L-124.199 271L-124.199 269.5L-130.154 269.5L-130.154 271L-136.11 271L-136.11 269.5L-142.066 269.5L-142.066 271L-148.022 271L-148.022 269.5L-149.5 269.5L-149.5 268.054L-151 268.054L-151 262.163L-149.5 262.163L-149.5 256.272L-151 256.272L-151 250.38L-149.5 250.38L-149.5 244.489L-151 244.489L-151 238.598L-149.5 238.598L-149.5 232.707L-151 232.707L-151 226.815L-149.5 226.815L-149.5 220.924L-151 220.924L-151 215.033L-149.5 215.033L-149.5 209.141L-151 209.141L-151 203.25L-149.5 203.25L-149.5 197.359L-151 197.359L-151 191.467L-149.5 191.467L-149.5 185.576L-151 185.576L-151 179.685L-149.5 179.685L-149.5 173.793L-151 173.793L-151 167.902L-149.5 167.902L-149.5 162.011L-151 162.011L-151 156.12L-149.5 156.12L-149.5 150.228L-151 150.228L-151 144.337L-149.5 144.337L-149.5 138.446L-151 138.446L-151 132.554L-149.5 132.554L-149.5 126.663L-151 126.663L-151 120.772L-149.5 120.772L-149.5 114.88L-151 114.88L-151 108.989L-149.5 108.989L-149.5 103.098L-151 103.098L-151 97.2065L-149.5 97.2065L-149.5 91.3152L-151 91.3151L-151 85.4238L-149.5 85.4238L-149.5 79.5325L-151 79.5325L-151 73.6412L-149.5 73.6412L-149.5 67.7499L-151 67.7499L-151 61.8586L-149.5 61.8586L-149.5 55.9673L-151 55.9673L-151 50.076L-149.5 50.076L-149.5 44.1847L-151 44.1847L-151 38.2934L-149.5 38.2934L-149.5 32.4021L-151 32.4021L-151 26.5108L-149.5 26.5108L-149.5 20.6195L-151 20.6195L-151 14.7282L-149.5 14.7282L-149.5 8.83689L-151 8.83689L-151 2.94558L-149.5 2.94558L-149.5 1.49993L-148.022 1.49993L-148.022 -7.32214e-05L-142.066 -7.19197e-05L-142.066 1.49993L-136.11 1.49993L-136.11 -7.0618e-05L-130.154 -6.93163e-05L-130.154 1.49993L-124.199 1.49993L-124.199 -6.80146e-05L-118.243 -6.67129e-05L-118.243 1.49993L-112.287 1.49993L-112.287 -6.54112e-05L-106.331 -6.41095e-05L-106.331 1.49994L-100.375 1.49994L-100.375 -6.28078e-05L-94.4191 -6.15061e-05L-94.4191 1.49994L-88.4632 1.49994L-88.4632 -6.02044e-05L-82.5073 -5.89027e-05L-82.5073 1.49994L-76.5514 1.49994L-76.5514 -5.7601e-05L-70.5955 -5.62993e-05L-70.5955 1.49994L-64.6397 1.49995L-64.6397 -5.49976e-05L-58.6838 -5.36959e-05L-58.6838 1.49995L-52.7279 1.49995L-52.7279 -5.23942e-05L-46.772 -5.10925e-05L-46.772 1.49995L-40.8161 1.49995L-40.8161 -4.97908e-05L-34.8603 -4.84891e-05L-34.8603 1.49995L-28.9044 1.49995L-28.9044 -4.71874e-05L-22.9485 -4.58857e-05L-22.9485 1.49995L-16.9926 1.49996L-16.9926 -4.4584e-05L-11.0367 -4.32823e-05L-11.0367 1.49996L-5.08086 1.49996L-5.08086 -4.19806e-05L0.875015 -4.06789e-05L0.875015 1.49996L6.8309 1.49996L6.8309 -3.93772e-05L12.7868 -3.80755e-05L12.7868 1.49996L18.7427 1.49996L18.7427 -3.67738e-05L24.6985 -3.54721e-05L24.6985 1.49996L30.6544 1.49997L30.6544 -3.41704e-05L36.6103 -3.28687e-05L36.6103 1.49997L42.5662 1.49997L42.5662 -3.1567e-05L48.5221 -3.02653e-05L48.5221 1.49997L51.5 1.49997C52.4804 1.49997 53.4584 1.5105 54.4338 1.53144L54.466 0.0317905C56.4449 0.0742897 58.4134 0.159216 60.3706 0.285695L60.2739 1.78257C62.2265 1.90876 64.1677 2.07675 66.0965 2.28567L66.258 0.794396C68.2241 1.00736 70.1776 1.26237 72.1176 1.55853L71.8912 3.04135C73.8259 3.3367 75.7469 3.67342 77.6534 4.05058L77.9445 2.5791C79.8847 2.96293 81.81 3.38819 83.7195 3.85391L83.3641 5.31119C85.2632 5.77437 87.1464 6.27803 89.0128 6.82119L89.4319 5.38094C91.3291 5.93308 93.2092 6.52558 95.071 7.15746L94.5889 8.57788C96.4385 9.20559 98.2699 9.87259 100.082 10.5779L100.626 9.18002C102.466 9.89617 104.287 10.6514 106.087 11.4446L105.482 12.8172C107.268 13.6044 109.034 14.4294 110.779 15.2913L111.443 13.9465C113.213 14.8207 114.96 15.7324 116.685 16.6806L115.962 17.995C117.672 18.935 119.359 19.9113 121.022 20.9228L121.802 19.6412C123.488 20.6663 125.149 21.7273 126.786 22.8229L125.951 24.0693C127.573 25.1546 129.169 26.2743 130.739 27.4275L131.627 26.2185C133.216 27.3859 134.779 28.5872 136.315 29.8212L135.375 30.9904C136.895 32.2119 138.388 33.4659 139.853 34.7513L140.842 33.6239C142.324 34.9243 143.777 36.2565 145.2 37.6194L144.163 38.7028C145.571 40.051 146.949 41.4295 148.297 42.8374L149.381 41.8C150.744 43.2234 152.076 44.6764 153.376 46.158L152.249 47.1475C153.534 48.612 154.788 50.1048 156.01 51.6249L157.179 50.6853C158.413 52.2209 159.614 53.784 160.782 55.3735L159.573 56.2614C160.726 57.8314 161.845 59.4275 162.931 61.0486L164.177 60.2141C165.273 61.8506 166.334 63.5124 167.359 65.1982L166.077 65.9776C167.089 67.641 168.065 69.3281 169.005 71.038L170.319 70.3154C171.268 72.04 172.179 73.7875 173.054 75.5569L171.709 76.2213C172.571 77.9658 173.396 79.7316 174.183 81.5179L175.555 80.9131C176.349 82.7131 177.104 84.5337 177.82 86.3739L176.422 86.9179C177.127 88.7302 177.794 90.5616 178.422 92.4111L179.843 91.929C180.474 93.7909 181.067 95.6709 181.619 97.5681L180.179 97.9873C180.722 99.8537 181.226 101.737 181.689 103.636L183.146 103.281C183.612 105.19 184.037 107.115 184.421 109.056L182.949 109.347C183.327 111.253 183.663 113.174 183.959 115.109L185.441 114.882C185.738 116.822 185.993 118.776 186.206 120.742L184.714 120.904C184.923 122.832 185.091 124.774 185.217 126.726L186.714 126.629C186.841 128.587 186.926 130.555 186.968 132.534L185.468 132.566C185.489 133.542 185.5 134.52 185.5 135.5C185.5 136.48 185.489 137.458 185.468 138.434L186.968 138.466C186.926 140.445 186.841 142.413 186.714 144.371L185.217 144.274C185.091 146.227 184.923 148.168 184.714 150.097L186.206 150.258C185.993 152.224 185.738 154.178 185.441 156.118L183.959 155.891C183.663 157.826 183.327 159.747 182.949 161.653L184.421 161.945C184.037 163.885 183.612 165.81 183.146 167.72L181.689 167.364C181.226 169.263 180.722 171.146 180.179 173.013L181.619 173.432C181.067 175.329 180.474 177.209 179.842 179.071L178.422 178.589C177.794 180.439 177.127 182.27 176.422 184.082L177.82 184.626C177.104 186.466 176.349 188.287 175.555 190.087L174.183 189.482C173.396 191.268 172.571 193.034 171.709 194.779L173.053 195.443C172.179 197.213 171.268 198.96 170.319 200.685L169.005 199.962C168.065 201.672 167.089 203.359 166.077 205.023L167.359 205.802C166.334 207.488 165.273 209.149 164.177 210.786L162.931 209.952C161.845 211.573 160.726 213.169 159.572 214.739L160.781 215.627C159.614 217.216 158.413 218.779 157.179 220.315L156.01 219.375C154.788 220.895 153.534 222.388 152.249 223.853L153.376 224.842C152.076 226.324 150.743 227.777 149.381 229.2L148.297 228.163C146.949 229.571 145.57 230.949 144.163 232.297L145.2 233.381C143.777 234.744 142.324 236.076 140.842 237.376L139.853 236.249C138.388 237.534 136.895 238.788 135.375 240.01L136.315 241.179C134.779 242.413 133.216 243.614 131.626 244.782L130.739 243.573C129.169 244.726 127.572 245.845 125.951 246.931L126.786 248.177C125.149 249.273 123.488 250.334 121.802 251.359L121.022 250.077C119.359 251.089 117.672 252.065 115.962 253.005L116.685 254.319C114.96 255.268 113.212 256.179 111.443 257.054L110.779 255.709C109.034 256.571 107.268 257.396 105.482 258.183L106.087 259.555C104.287 260.349 102.466 261.104 100.626 261.82L100.082 260.422C98.2698 261.127 96.4384 261.794 94.5889 262.422L95.0709 263.843C93.2091 264.474 91.3291 265.067 89.4318 265.619L89.0127 264.179C87.1463 264.722 85.2631 265.226 83.364 265.689L83.7194 267.146C81.8099 267.612 79.8846 268.037 77.9444 268.421L77.6533 266.949C75.7468 267.327 73.8258 267.663 71.8911 267.959L72.1175 269.441C70.1775 269.738 68.224 269.993 66.2579 270.206L66.0964 268.714C64.1676 268.923 62.2264 269.091 60.2738 269.217L60.3705 270.714C58.4133 270.841 56.4448 270.926 54.4659 270.968L54.4337 269.469C53.4583 269.49 52.4804 269.5 51.4999 269.5L48.5221 269.5Z" stroke="white" stroke-width="3" stroke-dasharray="6 6"/>
</svg>
