<svg width="17" height="18" viewBox="0 0 17 18" fill="none" xmlns="http://www.w3.org/2000/svg">
<path d="M16.4276 16.2033L14.0943 13.8033C14.9831 12.7366 15.5387 11.5366 15.7609 10.2033C15.9831 8.86994 15.872 7.55883 15.4276 6.26994C14.9831 4.98105 14.2498 3.86994 13.2276 2.9366C12.2054 2.00327 11.0276 1.39216 9.69425 1.10327C8.36092 0.814383 7.0387 0.847715 5.72759 1.20327C4.41648 1.55883 3.27203 2.22549 2.29425 3.20327C1.31648 4.18105 0.649808 5.32549 0.294253 6.6366C-0.0613027 7.94772 -0.094636 9.26994 0.194253 10.6033C0.483142 11.9366 1.09425 13.1144 2.02759 14.1366C2.96092 15.1588 4.07203 15.8922 5.36092 16.3366C6.64981 16.781 7.96092 16.8922 9.29425 16.6699C10.6276 16.4477 11.8276 15.8922 12.8943 15.0033L15.2943 17.3366C15.4276 17.5144 15.6165 17.6033 15.8609 17.6033C16.1054 17.6033 16.3054 17.5255 16.4609 17.3699C16.6165 17.2144 16.6943 17.0144 16.6943 16.7699C16.6943 16.5255 16.6054 16.3366 16.4276 16.2033ZM1.69425 8.86994C1.69425 7.71438 1.97203 6.65883 2.52759 5.70327C3.08314 4.74771 3.8387 3.99216 4.79425 3.4366C5.74981 2.88105 6.79425 2.60327 7.92759 2.60327C9.06092 2.60327 10.1054 2.88105 11.0609 3.4366C12.0165 3.99216 12.7831 4.74771 13.3609 5.70327C13.9387 6.65883 14.2276 7.70327 14.2276 8.8366C14.2276 9.96994 13.9387 11.0144 13.3609 11.9699C12.7831 12.9255 12.0165 13.681 11.0609 14.2366C10.1054 14.7922 9.06092 15.0699 7.92759 15.0699C6.79425 15.0699 5.74981 14.7922 4.79425 14.2366C3.8387 13.681 3.08314 12.9255 2.52759 11.9699C1.97203 11.0144 1.69425 9.98105 1.69425 8.86994Z" fill="white"/>
</svg>
